<?xml version="1.0" encoding="UTF-8" standalone="no"?>
<!-- Created with Inkscape (http://www.inkscape.org/) -->

<svg
   xmlns:dc="http://purl.org/dc/elements/1.1/"
   xmlns:cc="http://creativecommons.org/ns#"
   xmlns:rdf="http://www.w3.org/1999/02/22-rdf-syntax-ns#"
   xmlns:svg="http://www.w3.org/2000/svg"
   xmlns="http://www.w3.org/2000/svg"
   xmlns:sodipodi="http://sodipodi.sourceforge.net/DTD/sodipodi-0.dtd"
   xmlns:inkscape="http://www.inkscape.org/namespaces/inkscape"
   version="1.1"
   id="svg12459"
   xml:space="preserve"
   width="2144.1553"
   height="1444.2344"
   viewBox="0 0 2144.1552 1444.2344"
   sodipodi:docname="constrution.svg"
   inkscape:version="0.92.4 (5da689c313, 2019-01-14)"><metadata
     id="metadata12465"><rdf:RDF><cc:Work
         rdf:about=""><dc:format>image/svg+xml</dc:format><dc:type
           rdf:resource="http://purl.org/dc/dcmitype/StillImage" /><dc:title></dc:title></cc:Work></rdf:RDF></metadata><defs
     id="defs12463" /><sodipodi:namedview
     pagecolor="#ffffff"
     bordercolor="#666666"
     borderopacity="1"
     objecttolerance="10"
     gridtolerance="10"
     guidetolerance="10"
     inkscape:pageopacity="0"
     inkscape:pageshadow="2"
     inkscape:window-width="1024"
     inkscape:window-height="581"
     id="namedview12461"
     showgrid="false"
     inkscape:zoom="0.13670989"
     inkscape:cx="1001.7034"
     inkscape:cy="489.86341"
     inkscape:window-x="-4"
     inkscape:window-y="337"
     inkscape:window-maximized="1"
     inkscape:current-layer="g12467" /><g
     id="g12467"
     inkscape:groupmode="layer"
     inkscape:label="ink_ext_XXXXXX"
     transform="matrix(1.3333333,0,0,-1.3333333,-195.6774,1676.461)"><g
       id="g12469"
       transform="scale(0.167621)"><path
         d="m 5850.18,4094.83 h -2.24 l -1.12,239.71 3.36,-1.25 v -238.46"
         style="fill:#4b364b;fill-opacity:1;fill-rule:nonzero;stroke:none"
         id="path12477"
         inkscape:connector-curvature="0" /><path
         d="m 9876.98,1368.21 c 0,-98.44 -79.82,-178.26 -178.25,-178.26 H 5686.98 c -98.38,0 -178.18,79.82 -178.18,178.26 V 3611.3 c 0,98.44 79.8,178.2 178.18,178.2 h 4011.75 c 98.43,0 178.25,-79.76 178.25,-178.2 V 1368.21"
         style="fill:#b4c9d1;fill-opacity:1;fill-rule:nonzero;stroke:none"
         id="path12509"
         inkscape:connector-curvature="0" /><path
         d="M 5665.34,1340.17 H 9720.45 V 3639.4 H 5665.34 Z"
         style="fill:#3c4043;fill-opacity:1;fill-rule:nonzero;stroke:none"
         id="path12511"
         inkscape:connector-curvature="0" /><path
         d="M 5708.54,1388.13 H 9677.19 V 3591.37 H 5708.54 Z"
         style="fill:#ffffff;fill-opacity:1;fill-rule:nonzero;stroke:none"
         id="path12513"
         inkscape:connector-curvature="0" /><path
         d="m 4916.41,1307.47 v -8.41 c 0,-125.1 101.4,-226.52 226.54,-226.52 h 5099.85 c 125.1,0 226.5,101.42 226.5,226.52 v 8.41 H 4916.41"
         style="fill:#95a5ac;fill-opacity:1;fill-rule:nonzero;stroke:none"
         id="path12515"
         inkscape:connector-curvature="0" /><path
         d="m 10458.2,1229.02 c 7.1,22.02 11.1,45.58 11.1,70.04 v 8.41 H 4916.41 v -8.41 c 0,-24.46 4.01,-48.02 11.16,-70.04 h 5530.63"
         style="fill:#d8e2e6;fill-opacity:1;fill-rule:nonzero;stroke:none"
         id="path12517"
         inkscape:connector-curvature="0" /><path
         d="m 2190.98,2616.38 h -992.57 v 992.54 h 539.84 l 452.73,-424.35 v -568.19"
         style="fill:#f57525;fill-opacity:1;fill-rule:nonzero;stroke:none"
         id="path12743"
         inkscape:connector-curvature="0" /><path
         d="m 2004.78,2874.46 h -620.17 v 620.15 h 325.07 l 295.1,-273.47 v -346.68"
         style="fill:#2a161e;fill-opacity:1;fill-rule:nonzero;stroke:none"
         id="path12745"
         inkscape:connector-curvature="0" /><path
         d="m 1951.27,2981.43 h -513.15 v 479.36 h 215.54 l 297.61,-276.22 v -203.14"
         style="fill:#84ccf1;fill-opacity:1;fill-rule:nonzero;stroke:none"
         id="path12747"
         inkscape:connector-curvature="0" /><path
         d="m 1543.15,2981.43 h -52.18 l 258.37,390.52 33.28,-29.17 -239.47,-361.35"
         style="fill:#ffffff;fill-opacity:1;fill-rule:nonzero;stroke:none"
         id="path12749"
         inkscape:connector-curvature="0" /><path
         d="m 1650.53,2981.43 h -52.13 l 216.89,326.09 33.28,-29.17 -198.04,-296.92"
         style="fill:#ffffff;fill-opacity:1;fill-rule:nonzero;stroke:none"
         id="path12751"
         inkscape:connector-curvature="0" /><path
         d="m 1064.57,2057.32 h 1492.41 v 745.016 H 1064.57 Z"
         style="fill:#f57525;fill-opacity:1;fill-rule:nonzero;stroke:none"
         id="path12753"
         inkscape:connector-curvature="0" /><path
         d="m 1384.94,2260.28 c 0,-214.23 173.63,-387.84 387.82,-387.84 214.19,0 387.81,173.61 387.81,387.84 0,214.11 -173.62,387.78 -387.81,387.78 -214.19,0 -387.82,-173.67 -387.82,-387.78"
         style="fill:#2a161e;fill-opacity:1;fill-rule:nonzero;stroke:none"
         id="path12755"
         inkscape:connector-curvature="0" /><path
         d="m 1509.92,2260.28 c 0,-145.27 117.66,-262.92 262.84,-262.92 145.16,0 262.87,117.65 262.87,262.92 0,145.15 -117.71,262.79 -262.87,262.79 -145.18,0 -262.84,-117.64 -262.84,-262.79"
         style="fill:#2a161e;fill-opacity:1;fill-rule:nonzero;stroke:none"
         id="path12757"
         inkscape:connector-curvature="0" /><path
         d="m 4675.91,4853.99 -3021.95,-2815.34 113.37,0.18 2908.58,2709.74 v 105.42"
         style="fill:#f89a22;fill-opacity:1;fill-rule:nonzero;stroke:none"
         id="path12759"
         inkscape:connector-curvature="0" /><path
         d="m 4675.91,5363.99 -3416.51,-3183 52.57,-56.49 3363.94,3134 v 105.49"
         style="fill:#f89a22;fill-opacity:1;fill-rule:nonzero;stroke:none"
         id="path12761"
         inkscape:connector-curvature="0" /><path
         d="m 4675.91,5275.95 -3361.86,-3132.13 17.41,-18.73 3344.45,3115.9 v 34.96"
         style="fill:#c3561e;fill-opacity:1;fill-rule:nonzero;stroke:none"
         id="path12763"
         inkscape:connector-curvature="0" /><path
         d="M 4675.91,4748.57 1767.33,2038.83 h 37.59 l 2870.99,2674.84 v 34.9"
         style="fill:#c3561e;fill-opacity:1;fill-rule:nonzero;stroke:none"
         id="path12765"
         inkscape:connector-curvature="0" /><path
         d="m 2015.55,2322.8 56.44,52.56 -254.34,272.94 -56.44,-52.56 254.34,-272.94"
         style="fill:#f89a22;fill-opacity:1;fill-rule:nonzero;stroke:none"
         id="path12767"
         inkscape:connector-curvature="0" /><path
         d="m 2015.55,2322.8 56.44,52.56 -421.62,117.11 -56.42,-52.62 421.6,-117.05"
         style="fill:#f89a22;fill-opacity:1;fill-rule:nonzero;stroke:none"
         id="path12769"
         inkscape:connector-curvature="0" /><path
         d="m 2239.29,2531.25 56.44,52.55 -254.32,273 -56.44,-52.62 254.32,-272.93"
         style="fill:#f89a22;fill-opacity:1;fill-rule:nonzero;stroke:none"
         id="path12771"
         inkscape:connector-curvature="0" /><path
         d="m 2239.29,2531.25 56.44,52.55 -421.64,117.11 -56.44,-52.61 421.64,-117.05"
         style="fill:#f89a22;fill-opacity:1;fill-rule:nonzero;stroke:none"
         id="path12773"
         inkscape:connector-curvature="0" /><path
         d="m 2463.05,2739.69 56.44,52.56 -254.33,273 -56.45,-52.62 254.34,-272.94"
         style="fill:#f89a22;fill-opacity:1;fill-rule:nonzero;stroke:none"
         id="path12775"
         inkscape:connector-curvature="0" /><path
         d="m 2463.05,2739.69 56.44,52.56 -421.61,117.17 -56.47,-52.62 421.64,-117.11"
         style="fill:#f89a22;fill-opacity:1;fill-rule:nonzero;stroke:none"
         id="path12777"
         inkscape:connector-curvature="0" /><path
         d="m 2686.77,2948.2 56.44,52.56 -254.32,272.94 -56.41,-52.56 254.29,-272.94"
         style="fill:#f89a22;fill-opacity:1;fill-rule:nonzero;stroke:none"
         id="path12779"
         inkscape:connector-curvature="0" /><path
         d="m 2686.77,2948.2 56.44,52.56 -421.62,117.11 -56.43,-52.62 421.61,-117.05"
         style="fill:#f89a22;fill-opacity:1;fill-rule:nonzero;stroke:none"
         id="path12781"
         inkscape:connector-curvature="0" /><path
         d="m 2910.51,3156.59 56.49,52.55 -254.36,273 -56.42,-52.56 254.29,-272.99"
         style="fill:#f89a22;fill-opacity:1;fill-rule:nonzero;stroke:none"
         id="path12783"
         inkscape:connector-curvature="0" /><path
         d="m 2910.51,3156.59 56.49,52.55 -421.66,117.11 -56.45,-52.55 421.62,-117.11"
         style="fill:#f89a22;fill-opacity:1;fill-rule:nonzero;stroke:none"
         id="path12785"
         inkscape:connector-curvature="0" /><path
         d="m 3134.28,3365.03 56.44,52.62 -254.31,272.94 -56.45,-52.56 254.32,-273"
         style="fill:#f89a22;fill-opacity:1;fill-rule:nonzero;stroke:none"
         id="path12787"
         inkscape:connector-curvature="0" /><path
         d="m 3134.28,3365.03 56.44,52.62 -421.61,117.11 -56.47,-52.62 421.64,-117.11"
         style="fill:#f89a22;fill-opacity:1;fill-rule:nonzero;stroke:none"
         id="path12789"
         inkscape:connector-curvature="0" /><path
         d="m 3358,3573.54 56.46,52.5 -254.33,273.05 -56.45,-52.61 254.32,-272.94"
         style="fill:#f89a22;fill-opacity:1;fill-rule:nonzero;stroke:none"
         id="path12791"
         inkscape:connector-curvature="0" /><path
         d="m 3358,3573.54 56.46,52.5 -421.59,117.17 -56.46,-52.62 421.59,-117.05"
         style="fill:#f89a22;fill-opacity:1;fill-rule:nonzero;stroke:none"
         id="path12793"
         inkscape:connector-curvature="0" /><path
         d="m 3581.79,3781.93 56.44,52.61 -254.34,272.94 -56.47,-52.56 254.37,-272.99"
         style="fill:#f89a22;fill-opacity:1;fill-rule:nonzero;stroke:none"
         id="path12795"
         inkscape:connector-curvature="0" /><path
         d="m 3581.79,3781.93 56.44,52.61 -421.66,117.11 -56.44,-52.56 421.66,-117.16"
         style="fill:#f89a22;fill-opacity:1;fill-rule:nonzero;stroke:none"
         id="path12797"
         inkscape:connector-curvature="0" /><path
         d="m 3805.51,3990.49 56.44,52.56 -254.29,272.94 -56.49,-52.56 254.34,-272.94"
         style="fill:#f89a22;fill-opacity:1;fill-rule:nonzero;stroke:none"
         id="path12799"
         inkscape:connector-curvature="0" /><path
         d="m 3805.51,3990.49 56.44,52.56 -421.59,117.05 -56.47,-52.62 421.62,-116.99"
         style="fill:#f89a22;fill-opacity:1;fill-rule:nonzero;stroke:none"
         id="path12801"
         inkscape:connector-curvature="0" /><path
         d="m 4029.23,4198.82 56.49,52.62 -254.34,272.99 -56.45,-52.61 254.3,-273"
         style="fill:#f89a22;fill-opacity:1;fill-rule:nonzero;stroke:none"
         id="path12803"
         inkscape:connector-curvature="0" /><path
         d="m 4029.23,4198.82 56.49,52.62 -421.62,117.11 -56.44,-52.56 421.57,-117.17"
         style="fill:#f89a22;fill-opacity:1;fill-rule:nonzero;stroke:none"
         id="path12805"
         inkscape:connector-curvature="0" /><path
         d="m 4253.02,4407.27 56.46,52.61 -254.34,273 -56.46,-52.56 254.34,-273.05"
         style="fill:#f89a22;fill-opacity:1;fill-rule:nonzero;stroke:none"
         id="path12807"
         inkscape:connector-curvature="0" /><path
         d="m 4253.02,4407.27 56.46,52.61 -421.64,117.17 -56.46,-52.62 421.64,-117.16"
         style="fill:#f89a22;fill-opacity:1;fill-rule:nonzero;stroke:none"
         id="path12809"
         inkscape:connector-curvature="0" /><path
         d="m 4476.74,4615.77 56.46,52.62 -254.3,272.94 -56.46,-52.56 254.3,-273"
         style="fill:#f89a22;fill-opacity:1;fill-rule:nonzero;stroke:none"
         id="path12811"
         inkscape:connector-curvature="0" /><path
         d="m 4476.74,4615.77 56.46,52.62 -421.61,117.05 -56.45,-52.56 421.6,-117.11"
         style="fill:#f89a22;fill-opacity:1;fill-rule:nonzero;stroke:none"
         id="path12813"
         inkscape:connector-curvature="0" /><path
         d="m 4675.91,4963.81 -173.29,185.99 -56.44,-52.62 229.73,-246.54 v 113.17"
         style="fill:#f89a22;fill-opacity:1;fill-rule:nonzero;stroke:none"
         id="path12815"
         inkscape:connector-curvature="0" /><path
         d="m 4675.91,4899.27 -340.56,94.61 -56.45,-52.55 397.01,-110.25 v 68.19"
         style="fill:#f89a22;fill-opacity:1;fill-rule:nonzero;stroke:none"
         id="path12817"
         inkscape:connector-curvature="0" /><path
         d="m 4675.91,5169.94 -116.84,32.48 -56.45,-52.62 173.29,-48.14 v 68.28"
         style="fill:#f89a22;fill-opacity:1;fill-rule:nonzero;stroke:none"
         id="path12819"
         inkscape:connector-curvature="0" /><path
         d="m 3429.89,3698.94 3920.92,3652.95 52.62,-56.46 -3860.16,-3596.31 -113.38,-0.18"
         style="fill:#f89a22;fill-opacity:1;fill-rule:nonzero;stroke:none"
         id="path12821"
         inkscape:connector-curvature="0" /><path
         d="m 3035.33,3841.23 52.58,-56.38 3738.2,3482.64 -86.86,24.54 -3703.92,-3450.8"
         style="fill:#f89a22;fill-opacity:1;fill-rule:nonzero;stroke:none"
         id="path12823"
         inkscape:connector-curvature="0" /><path
         d="m 3089.98,3804.18 17.41,-18.73 3710.43,3456.82 -17.48,18.69 -3710.36,-3456.78"
         style="fill:#c3561e;fill-opacity:1;fill-rule:nonzero;stroke:none"
         id="path12825"
         inkscape:connector-curvature="0" /><path
         d="m 3543.27,3699.12 3860.16,3596.31 17.42,-18.69 -3839.99,-3577.56 -37.59,-0.06"
         style="fill:#c3561e;fill-opacity:1;fill-rule:nonzero;stroke:none"
         id="path12827"
         inkscape:connector-curvature="0" /><path
         d="m 3791.48,3983.09 56.44,52.56 -254.34,272.94 -56.45,-52.5 254.35,-273"
         style="fill:#f89a22;fill-opacity:1;fill-rule:nonzero;stroke:none"
         id="path12829"
         inkscape:connector-curvature="0" /><path
         d="m 3791.48,3983.09 56.44,52.56 -421.62,117.17 -56.42,-52.62 421.6,-117.11"
         style="fill:#f89a22;fill-opacity:1;fill-rule:nonzero;stroke:none"
         id="path12831"
         inkscape:connector-curvature="0" /><path
         d="m 4015.22,4191.54 56.44,52.62 -254.32,272.94 -56.44,-52.56 254.32,-273"
         style="fill:#f89a22;fill-opacity:1;fill-rule:nonzero;stroke:none"
         id="path12833"
         inkscape:connector-curvature="0" /><path
         d="m 4015.22,4191.54 56.44,52.62 -421.64,117.11 -56.44,-52.68 421.64,-117.05"
         style="fill:#f89a22;fill-opacity:1;fill-rule:nonzero;stroke:none"
         id="path12835"
         inkscape:connector-curvature="0" /><path
         d="m 4238.98,4399.99 56.45,52.62 -254.34,272.93 -56.45,-52.62 254.34,-272.93"
         style="fill:#f89a22;fill-opacity:1;fill-rule:nonzero;stroke:none"
         id="path12837"
         inkscape:connector-curvature="0" /><path
         d="m 4238.98,4399.99 56.45,52.62 -421.62,117.1 -56.47,-52.61 421.64,-117.11"
         style="fill:#f89a22;fill-opacity:1;fill-rule:nonzero;stroke:none"
         id="path12839"
         inkscape:connector-curvature="0" /><path
         d="m 4462.71,4608.43 56.44,52.62 -254.32,272.94 -56.42,-52.56 254.3,-273"
         style="fill:#f89a22;fill-opacity:1;fill-rule:nonzero;stroke:none"
         id="path12841"
         inkscape:connector-curvature="0" /><path
         d="m 4462.71,4608.43 56.44,52.62 -421.62,117.11 -56.44,-52.62 421.62,-117.11"
         style="fill:#f89a22;fill-opacity:1;fill-rule:nonzero;stroke:none"
         id="path12843"
         inkscape:connector-curvature="0" /><path
         d="m 4686.45,4816.94 56.49,52.56 -254.37,272.93 -56.42,-52.57 254.3,-272.92"
         style="fill:#f89a22;fill-opacity:1;fill-rule:nonzero;stroke:none"
         id="path12845"
         inkscape:connector-curvature="0" /><path
         d="m 4686.45,4816.94 56.49,52.56 -421.67,117.1 -56.44,-52.61 421.62,-117.05"
         style="fill:#f89a22;fill-opacity:1;fill-rule:nonzero;stroke:none"
         id="path12847"
         inkscape:connector-curvature="0" /><path
         d="m 4910.21,5025.36 56.45,52.62 -254.32,272.96 -56.44,-52.62 254.31,-272.96"
         style="fill:#f89a22;fill-opacity:1;fill-rule:nonzero;stroke:none"
         id="path12849"
         inkscape:connector-curvature="0" /><path
         d="m 4910.21,5025.36 56.45,52.62 -421.62,117.06 -56.47,-52.61 421.64,-117.07"
         style="fill:#f89a22;fill-opacity:1;fill-rule:nonzero;stroke:none"
         id="path12851"
         inkscape:connector-curvature="0" /><path
         d="m 5133.93,5233.81 56.47,52.58 -254.34,272.98 -56.44,-52.57 254.31,-272.99"
         style="fill:#f89a22;fill-opacity:1;fill-rule:nonzero;stroke:none"
         id="path12853"
         inkscape:connector-curvature="0" /><path
         d="m 5133.93,5233.81 56.47,52.58 -421.6,117.15 -56.46,-52.6 421.59,-117.13"
         style="fill:#f89a22;fill-opacity:1;fill-rule:nonzero;stroke:none"
         id="path12855"
         inkscape:connector-curvature="0" /><path
         d="m 5357.72,5442.29 56.44,52.55 -254.34,272.99 -56.46,-52.58 254.36,-272.96"
         style="fill:#f89a22;fill-opacity:1;fill-rule:nonzero;stroke:none"
         id="path12857"
         inkscape:connector-curvature="0" /><path
         d="m 5357.72,5442.29 56.44,52.55 -421.66,117.11 -56.44,-52.58 421.66,-117.08"
         style="fill:#f89a22;fill-opacity:1;fill-rule:nonzero;stroke:none"
         id="path12859"
         inkscape:connector-curvature="0" /><path
         d="m 5581.42,5650.75 56.46,52.55 -254.29,272.98 -56.49,-52.58 254.32,-272.95"
         style="fill:#f89a22;fill-opacity:1;fill-rule:nonzero;stroke:none"
         id="path12861"
         inkscape:connector-curvature="0" /><path
         d="m 5581.42,5650.75 56.46,52.55 -421.59,117.12 -56.47,-52.59 421.6,-117.08"
         style="fill:#f89a22;fill-opacity:1;fill-rule:nonzero;stroke:none"
         id="path12863"
         inkscape:connector-curvature="0" /><path
         d="m 5805.16,5859.18 56.49,52.57 -254.37,272.98 -56.42,-52.54 254.3,-273.01"
         style="fill:#f89a22;fill-opacity:1;fill-rule:nonzero;stroke:none"
         id="path12865"
         inkscape:connector-curvature="0" /><path
         d="m 5805.16,5859.18 56.49,52.57 -421.62,117.13 -56.44,-52.6 421.57,-117.1"
         style="fill:#f89a22;fill-opacity:1;fill-rule:nonzero;stroke:none"
         id="path12867"
         inkscape:connector-curvature="0" /><path
         d="m 6028.96,6067.63 56.43,52.58 -254.32,272.98 -56.46,-52.6 254.35,-272.96"
         style="fill:#f89a22;fill-opacity:1;fill-rule:nonzero;stroke:none"
         id="path12869"
         inkscape:connector-curvature="0" /><path
         d="m 6028.96,6067.63 56.43,52.58 -421.62,117.15 -56.49,-52.63 421.68,-117.1"
         style="fill:#f89a22;fill-opacity:1;fill-rule:nonzero;stroke:none"
         id="path12871"
         inkscape:connector-curvature="0" /><path
         d="m 6252.68,6276.09 56.43,52.59 -254.26,272.96 -56.49,-52.57 254.32,-272.98"
         style="fill:#f89a22;fill-opacity:1;fill-rule:nonzero;stroke:none"
         id="path12873"
         inkscape:connector-curvature="0" /><path
         d="m 6252.68,6276.09 56.43,52.59 -421.59,117.11 -56.45,-52.6 421.61,-117.1"
         style="fill:#f89a22;fill-opacity:1;fill-rule:nonzero;stroke:none"
         id="path12875"
         inkscape:connector-curvature="0" /><path
         d="m 6476.46,6484.59 56.43,52.55 -254.32,272.96 -56.44,-52.58 254.33,-272.93"
         style="fill:#f89a22;fill-opacity:1;fill-rule:nonzero;stroke:none"
         id="path12877"
         inkscape:connector-curvature="0" /><path
         d="m 6476.46,6484.59 56.43,52.55 -421.6,117.11 -56.44,-52.61 421.61,-117.05"
         style="fill:#f89a22;fill-opacity:1;fill-rule:nonzero;stroke:none"
         id="path12879"
         inkscape:connector-curvature="0" /><path
         d="m 6700.18,6693 56.43,52.59 -254.26,272.99 -56.5,-52.6 254.33,-272.98"
         style="fill:#f89a22;fill-opacity:1;fill-rule:nonzero;stroke:none"
         id="path12881"
         inkscape:connector-curvature="0" /><path
         d="m 6700.18,6693 56.43,52.59 -421.6,117.13 -56.44,-52.62 421.61,-117.1"
         style="fill:#f89a22;fill-opacity:1;fill-rule:nonzero;stroke:none"
         id="path12883"
         inkscape:connector-curvature="0" /><path
         d="m 6923.95,6901.45 56.38,52.6 -254.26,272.98 -56.44,-52.62 254.32,-272.96"
         style="fill:#f89a22;fill-opacity:1;fill-rule:nonzero;stroke:none"
         id="path12885"
         inkscape:connector-curvature="0" /><path
         d="m 6923.95,6901.45 56.38,52.6 -421.54,117.12 -56.44,-52.59 421.6,-117.13"
         style="fill:#f89a22;fill-opacity:1;fill-rule:nonzero;stroke:none"
         id="path12887"
         inkscape:connector-curvature="0" /><path
         d="m 7307.62,7258.89 69.5,64.79 -594.62,-44.1 -84.65,-78.86 609.77,58.17"
         style="fill:#f89a22;fill-opacity:1;fill-rule:nonzero;stroke:none"
         id="path12889"
         inkscape:connector-curvature="0" /><path
         d="m 7226.18,6608.48 -23.14,0.83 24.34,688.5 23.14,-0.79 -24.34,-688.54"
         style="fill:#2a161e;fill-opacity:1;fill-rule:nonzero;stroke:none"
         id="path12891"
         inkscape:connector-curvature="0" /><path
         d="m 7500.31,6598.78 -23.2,0.84 24.4,688.52 23.15,-0.87 -24.35,-688.49"
         style="fill:#2a161e;fill-opacity:1;fill-rule:nonzero;stroke:none"
         id="path12893"
         inkscape:connector-curvature="0" /><path
         d="m 7350.21,6123.75 -23.14,0.79 16.04,452.66 23.15,-0.84 -16.05,-452.61"
         style="fill:#2a161e;fill-opacity:1;fill-rule:nonzero;stroke:none"
         id="path12895"
         inkscape:connector-curvature="0" /><path
         d="m 7181.32,6636.3 -5.91,-167.74 166.63,-134.95 175.93,122.85 5.91,167.74 -342.56,12.1"
         style="fill:#c3561e;fill-opacity:1;fill-rule:nonzero;stroke:none"
         id="path12897"
         inkscape:connector-curvature="0" /><path
         d="m 7584.43,7285.18 c -4.05,-115.08 -100.7,-205.1 -215.78,-200.98 -115.08,4.03 -205.11,100.63 -201.05,215.75 4.11,115.1 100.7,205.12 215.78,201.04 115.08,-4.04 205.11,-100.72 201.05,-215.81"
         style="fill:#f89a22;fill-opacity:1;fill-rule:nonzero;stroke:none"
         id="path12899"
         inkscape:connector-curvature="0" /><path
         d="m 7536.71,7286.88 c -3.17,-88.72 -77.62,-158.12 -166.39,-154.93 -88.71,3.06 -158.16,77.58 -155,166.32 3.23,88.72 77.62,158.08 166.39,154.95 88.72,-3.12 158.16,-77.58 155,-166.34"
         style="fill:#2a161e;fill-opacity:1;fill-rule:nonzero;stroke:none"
         id="path12901"
         inkscape:connector-curvature="0" /><path
         d="m 7509.14,7287.88 c -2.62,-73.5 -64.31,-130.99 -137.87,-128.41 -73.44,2.62 -130.95,64.3 -128.38,137.8 2.62,73.55 64.37,131.04 137.81,128.41 73.56,-2.59 131.01,-64.3 128.44,-137.8"
         style="fill:#b4c9d1;fill-opacity:1;fill-rule:nonzero;stroke:none"
         id="path12903"
         inkscape:connector-curvature="0" /><path
         d="m 7183.53,6698.89 -6.98,-197.8 167.76,-104.94 174.74,92.82 7.04,197.78 -342.56,12.14"
         style="fill:#f89a22;fill-opacity:1;fill-rule:nonzero;stroke:none"
         id="path12905"
         inkscape:connector-curvature="0" /><path
         d="m 7401.7,6575.13 c -0.96,-28.18 -24.64,-50.2 -52.8,-49.22 -28.22,1.02 -50.23,24.7 -49.16,52.82 0.96,28.13 24.58,50.2 52.74,49.2 28.16,-1 50.23,-24.65 49.22,-52.8"
         style="fill:#c3561e;fill-opacity:1;fill-rule:nonzero;stroke:none"
         id="path12907"
         inkscape:connector-curvature="0" /><path
         d="m 7348.13,6503.86 c -40.33,1.4 -71.89,35.28 -70.46,75.64 1.37,40.34 35.26,71.95 75.59,70.5 40.38,-1.46 71.94,-35.3 70.51,-75.67 -1.43,-40.34 -35.32,-71.92 -75.64,-70.47 z m 5.72,162.66 c -49.46,1.75 -91.04,-36.93 -92.77,-86.45 -1.73,-49.46 36.93,-91.01 86.45,-92.71 49.45,-1.79 91.04,36.94 92.77,86.37 1.79,49.54 -36.93,91.07 -86.45,92.79"
         style="fill:#c3561e;fill-opacity:1;fill-rule:nonzero;stroke:none"
         id="path12909"
         inkscape:connector-curvature="0" /><path
         d="m 7464.64,5833.08 c -25.95,-49.13 -78.27,-81.8 -137.57,-79.75 -82.75,2.94 -147.42,72.41 -144.5,155.11 2.98,82.76 72.37,147.42 155.11,144.49 10.09,-0.33 19.81,-1.71 29.3,-3.96 l 0.12,2.93 h 0.06 l 6.08,171.59 -59,2.1 -4.29,-121.58 c -98.2,-10.83 -176.24,-92.07 -179.76,-193.73 -4.05,-111.67 83.35,-205.42 195.02,-209.38 88.84,-3.15 166.09,51.53 196.1,130.15 l -56.67,2.03"
         style="fill:#f89a22;fill-opacity:1;fill-rule:nonzero;stroke:none"
         id="path12911"
         inkscape:connector-curvature="0" /><path
         d="m 3406.03,2057.32 h 516.719 v 694.84 H 3406.03 Z"
         style="fill:#2a161e;fill-opacity:1;fill-rule:nonzero;stroke:none"
         id="path12913"
         inkscape:connector-curvature="0" /><path
         d="m 1610.5,1464.61 h 2441.45 v 483.77 H 1610.5 Z"
         style="fill:#717c82;fill-opacity:1;fill-rule:nonzero;stroke:none"
         id="path12915"
         inkscape:connector-curvature="0" /><path
         d="m 2767.71,1423.09 h 749.414 v 170.441 H 2767.71 Z"
         style="fill:#2a161e;fill-opacity:1;fill-rule:nonzero;stroke:none"
         id="path12917"
         inkscape:connector-curvature="0" /><path
         d="m 2600.52,1423.09 h 131.344 v 170.441 H 2600.52 Z"
         style="fill:#2a161e;fill-opacity:1;fill-rule:nonzero;stroke:none"
         id="path12919"
         inkscape:connector-curvature="0" /><path
         d="m 2425.74,1423.09 h 131.344 v 170.441 H 2425.74 Z"
         style="fill:#2a161e;fill-opacity:1;fill-rule:nonzero;stroke:none"
         id="path12921"
         inkscape:connector-curvature="0" /><path
         d="m 2425.74,1622.71 h 749.414 v 192.336 H 2425.74 Z"
         style="fill:#2a161e;fill-opacity:1;fill-rule:nonzero;stroke:none"
         id="path12923"
         inkscape:connector-curvature="0" /><path
         d="m 875.535,1694.06 h 2857.24 v 566.219 H 875.535 Z"
         style="fill:#f89a22;fill-opacity:1;fill-rule:nonzero;stroke:none"
         id="path12925"
         inkscape:connector-curvature="0" /><path
         d="m 875.535,2140.66 h 2857.24 v 119.613 H 875.535 Z"
         style="fill:#f57525;fill-opacity:1;fill-rule:nonzero;stroke:none"
         id="path12927"
         inkscape:connector-curvature="0" /><path
         d="m 875.535,2048.25 h 2857.24 v 27.7383 H 875.535 Z"
         style="fill:#f57525;fill-opacity:1;fill-rule:nonzero;stroke:none"
         id="path12929"
         inkscape:connector-curvature="0" /><path
         d="M 2162.95,1593.54 H 995.246 l 29.504,96.59 c 80.91,229.38 299.48,393.86 556.57,393.86 291.93,0 534.2,-212.09 581.63,-490.45"
         style="fill:#f89a22;fill-opacity:1;fill-rule:nonzero;stroke:none"
         id="path12931"
         inkscape:connector-curvature="0" /><path
         d="m 3700.27,1423.09 h 597.191 v 199.617 H 3700.27 Z"
         style="fill:#2a161e;fill-opacity:1;fill-rule:nonzero;stroke:none"
         id="path12933"
         inkscape:connector-curvature="0" /><path
         d="M 5147,3322.91 H 3953.77 l -253.5,-1000.82 v -728.55 h 2002.56 v 849.89 L 5147,3322.91"
         style="fill:#f89a22;fill-opacity:1;fill-rule:nonzero;stroke:none"
         id="path12935"
         inkscape:connector-curvature="0" /><path
         d="M 5518.52,1593.54 H 4350.84 l 29.46,96.59 c 80.94,229.38 299.51,393.86 556.59,393.86 291.94,0 534.2,-212.09 581.63,-490.45"
         style="fill:#f57525;fill-opacity:1;fill-rule:nonzero;stroke:none"
         id="path12937"
         inkscape:connector-curvature="0" /><path
         d="M 5424.86,2211.6 H 4390.53 v 987.88 h 658.16 l 376.17,-546.05 V 2211.6"
         style="fill:#2a161e;fill-opacity:1;fill-rule:nonzero;stroke:none"
         id="path12939"
         inkscape:connector-curvature="0" /><path
         d="m 5356.65,2347.98 h -897.91 v 808.37 h 518.54 l 379.37,-549.52 v -258.85"
         style="fill:#84ccf1;fill-opacity:1;fill-rule:nonzero;stroke:none"
         id="path12941"
         inkscape:connector-curvature="0" /><path
         d="m 4836.39,2347.98 h -66.51 l 381.53,556.13 29.79,-43.19 -344.81,-512.94"
         style="fill:#ffffff;fill-opacity:1;fill-rule:nonzero;stroke:none"
         id="path12943"
         inkscape:connector-curvature="0" /><path
         d="m 4973.27,2347.98 h -66.46 l 317.96,449.88 31.55,-45.7 -283.05,-404.18"
         style="fill:#ffffff;fill-opacity:1;fill-rule:nonzero;stroke:none"
         id="path12945"
         inkscape:connector-curvature="0" /><path
         d="m 5556.55,1854.42 h 91.1875 v 405.855 H 5556.55 Z"
         style="fill:#ef2e31;fill-opacity:1;fill-rule:nonzero;stroke:none"
         id="path12947"
         inkscape:connector-curvature="0" /><path
         d="m 5556.55,1634.04 h 91.1875 v 162.391 H 5556.55 Z"
         style="fill:#ef2e31;fill-opacity:1;fill-rule:nonzero;stroke:none"
         id="path12949"
         inkscape:connector-curvature="0" /><path
         d="m 4482.21,1396.66 v 194.19 h 17.34 c 11.44,51.79 31.92,100.05 59.54,143.36 l -12.35,12.41 137.29,137.27 12.37,-12.41 c 43.37,27.69 91.6,48.15 143.41,59.6 v 17.3 h 194.15 v -17.3 c 51.78,-11.45 100.06,-31.91 143.41,-59.6 l 12.4,12.41 137.26,-137.27 -12.4,-12.41 c 27.64,-43.31 48.12,-91.57 59.57,-143.36 h 17.35 v -194.19 h -17.35 c -11.45,-51.78 -31.93,-100.04 -59.57,-143.41 l 12.4,-12.36 -137.26,-137.33 -12.4,12.41 c -43.35,-27.62 -91.63,-48.08 -143.41,-59.6 v -17.3 h -194.15 v 17.3 c -51.81,11.52 -100.04,31.98 -143.41,59.6 l -12.37,-12.41 -137.29,137.33 12.35,12.36 c -27.62,43.37 -48.1,91.63 -59.54,143.41 h -17.34"
         style="fill:#2a161e;fill-opacity:1;fill-rule:nonzero;stroke:none"
         id="path12951"
         inkscape:connector-curvature="0" /><path
         d="m 4641.7,1493.73 c 0,-163.05 132.14,-295.19 295.19,-295.19 163.02,0 295.18,132.14 295.18,295.19 0,163.04 -132.16,295.19 -295.18,295.19 -163.05,0 -295.19,-132.15 -295.19,-295.19"
         style="fill:#2a161e;fill-opacity:1;fill-rule:nonzero;stroke:none"
         id="path12953"
         inkscape:connector-curvature="0" /><path
         d="m 4907.7,1723.23 c 0,-16.1 13.07,-29.17 29.19,-29.17 16.15,0 29.21,13.07 29.21,29.17 0,16.17 -13.06,29.18 -29.21,29.18 -16.12,0 -29.19,-13.01 -29.19,-29.18"
         style="fill:#717c82;fill-opacity:1;fill-rule:nonzero;stroke:none"
         id="path12955"
         inkscape:connector-curvature="0" /><path
         d="m 4907.7,1264.22 c 0,-16.11 13.07,-29.11 29.19,-29.11 16.15,0 29.21,13 29.21,29.11 0,16.17 -13.06,29.23 -29.21,29.23 -16.12,0 -29.19,-13.06 -29.19,-29.23"
         style="fill:#717c82;fill-opacity:1;fill-rule:nonzero;stroke:none"
         id="path12957"
         inkscape:connector-curvature="0" /><path
         d="m 4753.98,1635.3 c 11.4,-11.34 29.88,-11.34 41.27,0 11.42,11.45 11.4,29.95 0,41.34 -11.39,11.4 -29.87,11.4 -41.27,0 -11.35,-11.39 -11.42,-29.89 0,-41.34"
         style="fill:#717c82;fill-opacity:1;fill-rule:nonzero;stroke:none"
         id="path12959"
         inkscape:connector-curvature="0" /><path
         d="m 5078.52,1310.82 c 11.39,-11.34 29.85,-11.34 41.25,0 11.41,11.39 11.39,29.88 0,41.28 -11.42,11.45 -29.84,11.45 -41.25,0 -11.4,-11.4 -11.42,-29.89 0,-41.28"
         style="fill:#717c82;fill-opacity:1;fill-rule:nonzero;stroke:none"
         id="path12961"
         inkscape:connector-curvature="0" /><path
         d="m 4707.4,1464.61 c 16.13,0 29.17,13.07 29.17,29.12 0.03,16.16 -13.04,29.23 -29.17,29.23 -16.15,0 -29.18,-13.07 -29.18,-29.23 0,-16.05 13.03,-29.12 29.18,-29.12"
         style="fill:#717c82;fill-opacity:1;fill-rule:nonzero;stroke:none"
         id="path12963"
         inkscape:connector-curvature="0" /><path
         d="m 5166.35,1464.61 c 16.1,0 29.17,13.07 29.17,29.12 0,16.16 -13.07,29.23 -29.17,29.23 -16.18,0 -29.18,-13.07 -29.18,-29.23 0,-16.05 13.03,-29.18 29.18,-29.12"
         style="fill:#717c82;fill-opacity:1;fill-rule:nonzero;stroke:none"
         id="path12965"
         inkscape:connector-curvature="0" /><path
         d="m 5057.38,1373.22 c 66.53,66.58 66.53,174.5 0,241.02 -66.54,66.58 -174.41,66.58 -241.01,0 -66.56,-66.52 -66.49,-174.44 0.02,-240.96 66.58,-66.52 174.45,-66.64 240.99,-0.06"
         style="fill:#717c82;fill-opacity:1;fill-rule:nonzero;stroke:none"
         id="path12967"
         inkscape:connector-curvature="0" /><path
         d="m 4795.3,1310.88 c 11.37,11.39 11.35,29.82 -0.05,41.28 -11.39,11.39 -29.87,11.33 -41.27,0 -11.42,-11.46 -11.42,-29.89 0,-41.28 11.4,-11.4 29.88,-11.4 41.32,0"
         style="fill:#717c82;fill-opacity:1;fill-rule:nonzero;stroke:none"
         id="path12969"
         inkscape:connector-curvature="0" /><path
         d="m 5119.83,1635.36 c 11.35,11.39 11.35,29.89 0,41.28 -11.46,11.4 -29.92,11.4 -41.31,0 -11.42,-11.39 -11.42,-29.89 0,-41.28 11.39,-11.4 29.85,-11.4 41.31,0"
         style="fill:#717c82;fill-opacity:1;fill-rule:nonzero;stroke:none"
         id="path12971"
         inkscape:connector-curvature="0" /><path
         d="m 3922.75,2211.6 h 364.78 v 987.88 h -235.58 l -129.2,-987.88"
         style="fill:#2a161e;fill-opacity:1;fill-rule:nonzero;stroke:none"
         id="path12973"
         inkscape:connector-curvature="0" /><path
         d="m 4015.73,2347.98 h 215.57 v 808.37 h -126.17 l -89.4,-808.37"
         style="fill:#84ccf1;fill-opacity:1;fill-rule:nonzero;stroke:none"
         id="path12975"
         inkscape:connector-curvature="0" /><path
         d="m 1126.64,1396.66 v 194.19 h 17.33 c 11.47,51.79 31.91,100.05 59.54,143.36 l -12.32,12.41 137.28,137.27 12.38,-12.41 c 43.32,27.69 91.63,48.15 143.38,59.6 v 17.3 h 194.15 v -17.3 c 51.83,-11.45 100.07,-31.91 143.41,-59.6 l 12.4,12.41 137.29,-137.27 -12.4,-12.41 c 27.64,-43.31 48.12,-91.57 59.56,-143.36 H 2036 v -194.19 h -17.36 c -11.44,-51.78 -31.92,-100.04 -59.56,-143.41 l 12.4,-12.36 -137.29,-137.33 -12.4,12.41 c -43.34,-27.62 -91.58,-48.08 -143.41,-59.6 v -17.3 h -194.15 v 17.3 c -51.75,11.52 -100.06,31.98 -143.38,59.6 l -12.38,-12.41 -137.28,137.33 12.32,12.36 c -27.63,43.37 -48.07,91.63 -59.54,143.41 h -17.33"
         style="fill:#2a161e;fill-opacity:1;fill-rule:nonzero;stroke:none"
         id="path12977"
         inkscape:connector-curvature="0" /><path
         d="m 1286.11,1493.73 c 0,-163.05 132.17,-295.19 295.21,-295.19 163.04,0 295.19,132.14 295.19,295.19 0,163.04 -132.15,295.19 -295.19,295.19 -163.04,0 -295.21,-132.15 -295.21,-295.19"
         style="fill:#2a161e;fill-opacity:1;fill-rule:nonzero;stroke:none"
         id="path12979"
         inkscape:connector-curvature="0" /><path
         d="m 1552.14,1723.23 c 0,-16.1 13.07,-29.17 29.18,-29.17 16.15,0 29.18,13.07 29.18,29.17 0,16.17 -13.03,29.18 -29.18,29.18 -16.11,0 -29.18,-13.01 -29.18,-29.18"
         style="fill:#717c82;fill-opacity:1;fill-rule:nonzero;stroke:none"
         id="path12981"
         inkscape:connector-curvature="0" /><path
         d="m 1552.14,1264.22 c 0,-16.11 13.07,-29.11 29.18,-29.11 16.15,0 29.18,13 29.18,29.11 0,16.17 -13.03,29.23 -29.18,29.23 -16.11,0 -29.18,-13.06 -29.18,-29.23"
         style="fill:#717c82;fill-opacity:1;fill-rule:nonzero;stroke:none"
         id="path12983"
         inkscape:connector-curvature="0" /><path
         d="m 1398.45,1635.3 c 11.37,-11.34 29.83,-11.34 41.25,0 11.42,11.45 11.39,29.95 0,41.34 -11.42,11.4 -29.88,11.4 -41.25,0 -11.41,-11.39 -11.44,-29.89 0,-41.34"
         style="fill:#717c82;fill-opacity:1;fill-rule:nonzero;stroke:none"
         id="path12985"
         inkscape:connector-curvature="0" /><path
         d="m 1722.96,1310.82 c 11.38,-11.34 29.86,-11.34 41.25,0 11.42,11.39 11.4,29.88 0,41.28 -11.39,11.45 -29.83,11.45 -41.25,0 -11.39,-11.4 -11.44,-29.89 0,-41.28"
         style="fill:#717c82;fill-opacity:1;fill-rule:nonzero;stroke:none"
         id="path12987"
         inkscape:connector-curvature="0" /><path
         d="m 1351.85,1464.61 c 16.12,0 29.15,13.07 29.15,29.12 0.04,16.16 -13.03,29.23 -29.15,29.23 -16.17,0 -29.18,-13.07 -29.18,-29.23 0,-16.05 13.01,-29.12 29.18,-29.12"
         style="fill:#717c82;fill-opacity:1;fill-rule:nonzero;stroke:none"
         id="path12989"
         inkscape:connector-curvature="0" /><path
         d="m 1810.77,1464.61 c 16.11,0 29.2,13.07 29.2,29.12 0,16.16 -13.09,29.23 -29.2,29.23 -16.17,0 -29.17,-13.07 -29.17,-29.23 0,-16.05 13.07,-29.18 29.17,-29.12"
         style="fill:#717c82;fill-opacity:1;fill-rule:nonzero;stroke:none"
         id="path12991"
         inkscape:connector-curvature="0" /><path
         d="m 1701.8,1373.22 c 66.56,66.58 66.56,174.5 0,241.02 -66.55,66.58 -174.42,66.58 -241.01,0 -66.53,-66.52 -66.46,-174.44 0.05,-240.96 66.54,-66.52 174.41,-66.64 240.96,-0.06"
         style="fill:#717c82;fill-opacity:1;fill-rule:nonzero;stroke:none"
         id="path12993"
         inkscape:connector-curvature="0" /><path
         d="m 1439.75,1310.88 c 11.37,11.39 11.34,29.82 -0.05,41.28 -11.42,11.39 -29.88,11.33 -41.25,0 -11.44,-11.46 -11.44,-29.89 0,-41.28 11.37,-11.4 29.83,-11.4 41.3,0"
         style="fill:#717c82;fill-opacity:1;fill-rule:nonzero;stroke:none"
         id="path12995"
         inkscape:connector-curvature="0" /><path
         d="m 1764.23,1635.36 c 11.4,11.39 11.4,29.89 0,41.28 -11.41,11.4 -29.89,11.4 -41.27,0 -11.44,-11.39 -11.44,-29.89 0,-41.28 11.38,-11.4 29.86,-11.4 41.27,0"
         style="fill:#717c82;fill-opacity:1;fill-rule:nonzero;stroke:none"
         id="path12997"
         inkscape:connector-curvature="0" /><path
         d="M 9440.94,4303.04 7336.19,5728.98 5947.71,4305.55 l -26.87,26.13 1410.4,1446.03 2130.76,-1443.58 -21.06,-31.09"
         style="fill:#2a161e;fill-opacity:1;fill-rule:nonzero;stroke:none"
         id="path13011"
         inkscape:connector-curvature="0" /><path
         d="M 5901.66,2306.04 H 9484.07 V 4318.62 H 5901.66 Z"
         style="fill:#ffffff;fill-opacity:1;fill-rule:nonzero;stroke:none"
         id="path13013"
         inkscape:connector-curvature="0" /><path
         d="M 5901.66,2861.99 H 9484.07 V 3895.81 H 5901.66 Z"
         style="fill:#a995c5;fill-opacity:1;fill-rule:nonzero;stroke:none"
         id="path13015"
         inkscape:connector-curvature="0" /><path
         d="m 5901.66,4148.71 h 3582.41 v 169.906 H 5901.66 Z"
         style="fill:#b4c9d1;fill-opacity:1;fill-rule:nonzero;stroke:none"
         id="path13017"
         inkscape:connector-curvature="0" /><path
         d="m 7578.46,4060.71 h 228.793 v 38.1211 H 7578.46 Z"
         style="fill:#6e797e;fill-opacity:1;fill-rule:nonzero;stroke:none"
         id="path13019"
         inkscape:connector-curvature="0" /><path
         d="m 5970.02,4214.57 h 114.426 v 38.125 H 5970.02 Z"
         style="fill:#6e797e;fill-opacity:1;fill-rule:nonzero;stroke:none"
         id="path13021"
         inkscape:connector-curvature="0" /><path
         d="m 6145.65,4214.57 h 114.363 v 38.125 H 6145.65 Z"
         style="fill:#6e797e;fill-opacity:1;fill-rule:nonzero;stroke:none"
         id="path13023"
         inkscape:connector-curvature="0" /><path
         d="m 6321.29,4214.57 h 114.363 v 38.125 H 6321.29 Z"
         style="fill:#6e797e;fill-opacity:1;fill-rule:nonzero;stroke:none"
         id="path13025"
         inkscape:connector-curvature="0" /><path
         d="m 9394.35,4270.29 -7.58,7.58 -36.69,-36.69 -36.63,36.69 -7.57,-7.58 36.69,-36.63 -36.69,-36.69 7.57,-7.58 36.63,36.69 36.69,-36.69 7.58,7.58 -36.69,36.69 36.69,36.63"
         style="fill:#6e797e;fill-opacity:1;fill-rule:nonzero;stroke:none"
         id="path13027"
         inkscape:connector-curvature="0" /><path
         d="m 6118.8,2687.31 h 228.848 v 38.1211 H 6118.8 Z"
         style="fill:#6e797e;fill-opacity:1;fill-rule:nonzero;stroke:none"
         id="path13029"
         inkscape:connector-curvature="0" /><path
         d="m 6118.8,2584.94 h 1257.42 v 38.0586 H 6118.8 Z"
         style="fill:#6e797e;fill-opacity:1;fill-rule:nonzero;stroke:none"
         id="path13031"
         inkscape:connector-curvature="0" /><path
         d="m 6118.8,2522.89 h 1257.42 v 38.1211 H 6118.8 Z"
         style="fill:#6e797e;fill-opacity:1;fill-rule:nonzero;stroke:none"
         id="path13033"
         inkscape:connector-curvature="0" /><path
         d="m 6118.8,2460.91 h 1257.42 v 38.1211 H 6118.8 Z"
         style="fill:#6e797e;fill-opacity:1;fill-rule:nonzero;stroke:none"
         id="path13035"
         inkscape:connector-curvature="0" /><path
         d="m 6118.8,2398.86 h 1257.42 v 38.1836 H 6118.8 Z"
         style="fill:#6e797e;fill-opacity:1;fill-rule:nonzero;stroke:none"
         id="path13037"
         inkscape:connector-curvature="0" /><path
         d="m 8415.18,2584.94 h 934.906 v 38.0586 H 8415.18 Z"
         style="fill:#6e797e;fill-opacity:1;fill-rule:nonzero;stroke:none"
         id="path13039"
         inkscape:connector-curvature="0" /><path
         d="m 8415.18,2522.89 h 934.906 v 38.1211 H 8415.18 Z"
         style="fill:#6e797e;fill-opacity:1;fill-rule:nonzero;stroke:none"
         id="path13041"
         inkscape:connector-curvature="0" /><path
         d="m 8415.18,2460.91 h 934.906 v 38.1211 H 8415.18 Z"
         style="fill:#6e797e;fill-opacity:1;fill-rule:nonzero;stroke:none"
         id="path13043"
         inkscape:connector-curvature="0" /><path
         d="m 8415.18,2398.86 h 934.906 v 38.1836 H 8415.18 Z"
         style="fill:#6e797e;fill-opacity:1;fill-rule:nonzero;stroke:none"
         id="path13045"
         inkscape:connector-curvature="0" /><path
         d="m 7932.36,4060.71 h 228.789 v 38.1211 H 7932.36 Z"
         style="fill:#6e797e;fill-opacity:1;fill-rule:nonzero;stroke:none"
         id="path13047"
         inkscape:connector-curvature="0" /><path
         d="m 8286.25,4060.71 h 228.789 v 38.1211 H 8286.25 Z"
         style="fill:#6e797e;fill-opacity:1;fill-rule:nonzero;stroke:none"
         id="path13049"
         inkscape:connector-curvature="0" /><path
         d="m 8640.15,4060.71 h 228.73 v 38.1211 h -228.73 z"
         style="fill:#6e797e;fill-opacity:1;fill-rule:nonzero;stroke:none"
         id="path13051"
         inkscape:connector-curvature="0" /><path
         d="m 8993.98,4060.71 h 228.852 v 38.1211 H 8993.98 Z"
         style="fill:#6e797e;fill-opacity:1;fill-rule:nonzero;stroke:none"
         id="path13053"
         inkscape:connector-curvature="0" /><path
         d="m 7480.27,2991.09 h 1869.81 v 790.234 H 7480.27 Z"
         style="fill:#ffffff;fill-opacity:1;fill-rule:nonzero;stroke:none"
         id="path13055"
         inkscape:connector-curvature="0" /><path
         d="m 7932.36,2442.83 c 0,-17.83 -14.44,-32.27 -32.27,-32.27 h -261.13 c -17.84,0 -32.28,14.44 -32.28,32.27 v 261.19 c 0,17.78 14.44,32.21 32.28,32.21 h 261.13 c 17.83,0 32.27,-14.43 32.27,-32.21 v -261.19"
         style="fill:#a995c5;fill-opacity:1;fill-rule:nonzero;stroke:none"
         id="path13057"
         inkscape:connector-curvature="0" /><path
         d="m 7703.51,2645.43 c 11.28,0 20.35,-9.13 20.35,-20.34 0,-11.21 -9.07,-20.29 -20.35,-20.29 -11.22,0 -20.28,9.08 -20.28,20.29 0,11.21 9.06,20.34 20.28,20.34 z m 81.97,0 c 11.22,0 20.29,-9.13 20.29,-20.34 0,-11.21 -9.07,-20.29 -20.29,-20.29 -11.21,0 -20.28,9.08 -20.28,20.29 0,11.21 9.07,20.34 20.28,20.34 z m 14.26,-87.99 v 29.29 c 15.57,5.79 26.72,20.76 26.72,38.36 0,22.61 -18.37,40.98 -40.98,40.98 -22.67,0 -40.98,-18.37 -40.98,-40.98 0,-12.71 5.78,-24.04 14.85,-31.56 h -29.71 c 9.07,7.52 14.86,18.85 14.86,31.56 0,22.61 -18.32,40.98 -40.99,40.98 -22.61,0 -40.99,-18.37 -40.99,-40.98 0,-16.7 10.09,-31.14 24.46,-37.46 v -106.92 h 112.76 v 36.04 l 76.78,-22.49 v 85.73 l -76.78,-22.55"
         style="fill:#ffffff;fill-opacity:1;fill-rule:nonzero;stroke:none"
         id="path13059"
         inkscape:connector-curvature="0" /><path
         d="m 8324.02,2442.83 c 0,-17.83 -14.44,-32.27 -32.28,-32.27 h -261.18 c -17.78,0 -32.22,14.44 -32.22,32.27 v 261.19 c 0,17.78 14.44,32.21 32.22,32.21 h 261.18 c 17.84,0 32.28,-14.43 32.28,-32.21 v -261.19"
         style="fill:#a995c5;fill-opacity:1;fill-rule:nonzero;stroke:none"
         id="path13061"
         inkscape:connector-curvature="0" /></g></g></svg>